<svg width="116" height="36" viewBox="0 0 116 36" fill="none" xmlns="http://www.w3.org/2000/svg">
<path d="M114.388 16.0381C115.18 16.0381 115.828 15.3901 115.828 14.5981V12.8342H111.364V8.94626H108.898C108.106 8.94626 107.458 9.59424 107.458 10.3862V12.8522H106.738C105.946 12.8522 105.298 13.5001 105.298 14.2921V16.0561H107.458V21.762C107.458 22.6799 107.476 23.5259 107.494 24.2459C107.512 24.9839 107.71 25.7039 108.088 26.4058C108.502 27.1618 109.114 27.7018 109.924 28.0438C110.734 28.3858 111.652 28.5658 112.678 28.5838C113.704 28.6018 114.748 28.5118 115.828 28.3138V26.6398C115.828 25.8299 115.162 25.1819 114.352 25.1999C113.992 25.2179 113.65 25.1999 113.326 25.1819C112.57 25.1279 112.03 24.8399 111.67 24.2999C111.49 24.0119 111.382 23.6339 111.382 23.1479C111.364 22.6619 111.364 22.1219 111.364 21.528V16.0381H114.388Z" fill="#071D2B"/>
<path d="M53.4058 7.70435H49.2659L41.832 28.3139H45C45.5939 28.3139 46.1339 27.9359 46.3499 27.3779L47.5919 24.012H56.7897L58.0316 27.3779C58.2476 27.9359 58.7696 28.3139 59.3816 28.3139H62.5315L55.6557 9.28831C55.3137 8.35233 54.4137 7.70435 53.4058 7.70435ZM48.9059 20.484L52.1818 11.6463L55.4577 20.484H48.9059Z" fill="#071D2B"/>
<path d="M83.0511 12.4562C79.7751 12.4562 77.6692 13.9142 76.5712 16.7581L78.9291 17.5861C79.4871 17.7841 80.1351 17.6041 80.5131 17.1361C81.0171 16.5061 81.5931 15.9841 83.0151 15.9841C84.797 15.9841 85.535 16.6141 85.679 18.3061L80.9091 19.1341C76.4992 19.854 75.9592 22.572 75.9592 24.0659C75.9592 25.5599 77.0932 28.7638 81.3591 28.7638C83.519 28.7638 85.067 27.9718 86.075 26.9999C86.129 27.7378 86.741 28.3318 87.4969 28.3318H89.4589V18.3601C89.4589 14.2022 86.831 12.4562 83.0511 12.4562ZM81.9531 25.6859C80.4591 25.6859 79.7211 25.1819 79.7211 24.2279C79.7211 23.274 80.4231 22.266 82.8171 21.852C84.131 21.618 85.175 21.42 85.859 21.294V22.266C85.859 24.2819 83.861 25.6859 81.9531 25.6859Z" fill="#071D2B"/>
<path d="M73.0433 12.8701C72.4493 12.8701 71.9093 13.248 71.6933 13.806L68.1834 23.3278L64.6735 13.806C64.4575 13.248 63.9355 12.8701 63.3235 12.8701H60.3356L66.2394 28.3317H70.1273L76.0312 12.8701H73.0433Z" fill="#071D2B"/>
<path d="M104.488 23.832C104.488 22.266 103.697 20.8801 102.491 20.0521C102.455 20.0161 102.401 19.9981 102.365 19.9621C102.347 19.9441 102.311 19.9261 102.293 19.9261C102.149 19.8361 102.005 19.7641 101.843 19.6921C101.285 19.4221 100.673 19.1881 100.673 19.1881C100.421 19.0981 100.151 18.9901 99.8806 18.9001C97.2347 18.0181 95.9567 17.8021 95.9567 16.9202C95.9567 16.1282 96.8927 15.7322 97.8826 15.7322C98.5126 15.7322 99.4126 15.9302 100.133 16.8302L100.151 16.8482C100.169 16.8662 100.187 16.8842 100.205 16.9022L100.223 16.9202C100.475 17.1901 100.835 17.3521 101.231 17.3521C101.393 17.3521 101.537 17.3161 101.681 17.2801H101.699L103.858 16.5422C103.121 14.0582 100.817 12.4383 97.7386 12.4383C96.5507 12.4383 95.5607 12.6183 94.7867 12.9422C93.2027 13.5362 92.0868 15.0482 92.0868 16.8482C92.0868 18.5401 93.0948 19.9801 94.5347 20.6461C95.2367 21.0061 96.0827 21.312 97.0727 21.6C99.8446 22.428 100.511 22.968 100.511 23.94C100.511 24.066 100.493 24.174 100.475 24.282C100.421 24.48 100.313 24.66 100.187 24.804C99.7906 25.218 99.0706 25.416 98.1166 25.416C96.9287 25.416 95.8667 24.93 95.1467 23.706C94.8047 23.13 94.0847 22.878 93.4548 23.112L91.2948 23.868C92.1948 26.4779 93.9947 28.7639 98.0986 28.7639C99.9706 28.7639 101.465 28.3499 102.527 27.6299C103.715 26.7839 104.488 25.398 104.488 23.832Z" fill="#071D2B"/>
<path d="M32.6192 28.4969C32.6192 18.8811 31.7703 1.5802 18.2814 1.40618C5.23127 1.23782 2.41853 18.6505 3.33251 28.4267C3.85633 29.1629 4.43414 29.8578 5.05876 30.5058C8.30244 33.8629 17.8751 33.4687 17.8751 33.4687C17.8751 33.4687 28.5637 33.4795 31.892 29.4437C32.144 29.1377 32.387 28.8227 32.6192 28.4969Z" fill="white"/>
<path d="M15.4412 4.48617C17.7471 2.90573 20.9206 3.76435 22.1158 6.29162L32.6191 28.4988C34.7215 25.5773 35.9725 22.0006 35.9995 18.1287C36.0697 8.18527 28.0667 0.0706601 18.1251 0.000458343C8.18344 -0.0697434 0.0688343 7.93326 0.000432554 17.8749C-0.0265681 21.808 1.21186 25.4513 3.33232 28.4268L3.75353 28.335L10.6081 26.8229C10.8007 26.7797 10.9033 27.0407 10.7341 27.1415L5.05856 30.5058C8.30224 33.8629 12.8384 35.9654 17.8749 35.9996C23.5144 36.0392 28.5636 33.4795 31.8918 29.4438L14.714 11.3605C12.7898 9.33369 13.1336 6.06661 15.4412 4.48617ZM18.6651 24.8987L7.60562 25.8581C6.40859 25.9625 5.40237 24.9707 5.48877 23.7701C5.57517 22.5712 6.7146 21.7342 7.88463 22.0096L18.6903 24.5549C18.8829 24.6017 18.8613 24.8807 18.6651 24.8987ZM13.5458 15.173L26.9561 26.0219C27.1091 26.1461 26.9705 26.3891 26.7851 26.3189L10.6549 20.206C8.96286 19.5652 8.24824 17.5635 9.14826 15.9939C10.0501 14.426 12.1399 14.0354 13.5458 15.173Z" fill="#FF7800"/>
</svg>
