<svg xmlns="http://www.w3.org/2000/svg" width="836" height="976" fill="none"><path fill="#29ABE2" d="M287.67 0h18.614l10.153 4.231 8.461 7.616 5.922 6.77 4.231 8.461 1.692 6.77v15.231l-4.23 12.693-4.231 6.77-5.922 5.923 8.46 20.308 9.307 24.54 6.769 21.155 9.307 38.925 7.615 41.463 2.538 2.539 55.842-3.385 30.459-.846h35.535l61.764 5.077 7.615.846.846-6.77 6.769-24.539 13.537-39.771 12.692-31.309 9.307-19.463 8.46-13.539 5.077-5.923V77.85l-4.23-10.155-1.693-8.462.846-11 3.385-10.154 5.922-11 6.769-8.463 10.153-8.462 11.845-5.923 6.769-1.692h12.691l12.692 3.384 7.614 5.078 5.923 5.923 5.076 8.462 4.231 10.154.846 3.385V53.31l-3.384 12.693-5.923 11-7.615 8.462-8.461 5.924-13.537 5.077-5.923 1.692-11.845 16.924-10.153 17.77-8.461 19.462-9.307 25.386-7.614 26.232-4.231 21.155-.846 11 7.615 1.693 16.075 6.769 13.538 6.77 9.307 6.769 8.461 8.462 6.768 11.847 3.385 11 2.538 13.54 16.922 6.769 12.691 6.77 8.461 6.769 5.922 5.077 8.461 11.001 5.077 11 3.384 13.539v22.001l-3.384 18.616-5.923 19.463-6.769 15.231-6.768 12.693-7.615 10.155-7.615 8.461-11.845 8.462-5.076 3.385-5.077 30.463-5.077 12.693-5.076 9.308-7.615 8.462-9.307 8.462-15.229 9.308-14.384 6.769-21.152 6.77-27.075 6.769-14.383 2.539h-9.307l-2.538 9.308v14.385l2.538 8.462 4.23 6.77 8.461 6.769 23.691 13.539 12.691 7.616 10.999 8.462 13.537 13.539 7.615 11.847 3.385 10.154.846 4.231v16.078l-3.385 9.308-5.922 6.769-5.923 3.385h-16.075l-15.23-2.538-10.999.846-5.077 3.385-5.076 6.769-5.077 13.539-8.461 32.155-7.614 16.078-7.615 8.462-7.615 5.077-4.23 1.692-10.153.847-4.231-.847-1.692 4.231-7.615 12.693-11.845 16.078-9.307 11-5.922 6.77-18.614 20.309-13.538 13.539-6.768 5.923-12.692 11-14.383 11.001-15.23 10.154-15.229 8.462-21.998 9.308-22.845 7.616-17.767 4.231-28.767 3.385h-10.153l-17.768-1.693-11.845-4.231-10.999-7.615-5.923-6.77-6.769-11.847-4.23-11.846-1.692-11.847v-17.77l2.538-13.539 4.23-13.539 6.769-19.462 9.307-21.155 2.538-9.308 1.693-14.386.846-16.923v-14.386l-.846-13.539-2.539-11.846-3.384-8.462-6.769-8.462-8.461-8.462-4.23-8.462-.846-3.385v-14.385l3.384-10.154 10.153-18.617 5.077-10.154 2.538-9.308.846-5.923v-8.462l-1.692-7.616-5.077-7.616-6.768-5.077-12.692-4.231-10.999-4.231-5.076-4.231-3.385-6.769v-6.77l2.539-6.769 6.768-9.308 7.615-8.462 9.307-5.924 10.999-3.384 5.077-.847h16.075l8.461.847h20.306l2.539-1.693-14.384-7.616-10.153-6.769-7.615-5.923-5.076-4.231-5.923-7.616-6.769-9.308-6.768-13.539-5.077-12.693-5.076-17.77-2.538-13.539-2.539-34.694-.846-16.924V379.94l1.692-31.309 2.539-21.155 4.23-17.77 5.923-15.231 6.768-12.693 9.307-11.001 8.461-8.462 11.845-7.615 11.845-5.924 21.153-7.615 17.767-5.924h2.539l-1.693-20.308-4.23-28.771-5.076-23.693-7.615-28.771-10.153-30.463-2.538-8.462h-9.307l-8.461-2.538-9.307-5.924-5.923-6.769-4.23-8.462-2.538-11V44.848l2.538-10.154 4.23-10.154 8.461-11 10.153-7.617 10.999-4.23L287.67 0Z"/><path fill="#29ABE2" d="M357.049 586.411h14.383l18.614 2.539 16.075 3.384v2.539l-6.768 13.539-1.692 6.77v6.769l4.23 2.539 4.23 1.692h5.923l5.077-8.462 5.922-10.154 5.923-5.923 2.538-1.693h5.923l2.538.846-.846 3.385-4.231 9.308-1.692 6.77v11l5.923 2.539 6.768.846 2.539-3.385 5.922-11.846 6.769-8.462 5.077-4.231 10.153.846 7.614.846h26.229l12.691-2.538 11.845-5.924 7.615-5.077.846 12.693 2.539 8.462 4.23 6.769 8.461 6.77 23.69 13.539 12.691 7.616 11 8.462 13.537 13.539 7.615 11.846 3.384 10.155.846 4.231v16.077l-3.384 9.308-5.923 6.77-5.922 3.385h-16.076l-15.23-2.539-10.999.846-5.076 3.385-5.077 6.77-5.076 13.539-8.461 32.155-7.615 16.078-7.615 8.461-7.614 5.078-4.231 1.692-10.153.846-4.23-.846-1.692 4.231-7.615 12.693-11.845 16.077-9.307 11.001-5.923 6.769-18.614 20.309-13.537 13.539-6.769 5.923-12.691 11.001-14.384 11-15.229 10.155-15.23 8.462-21.998 9.308-22.844 7.615-17.768 4.231-28.767 3.385h-10.153l-17.768-1.692-11.845-4.231-10.999-7.616-5.922-6.769-6.769-11.847-4.231-11.847-1.692-11.846v-17.77l2.539-13.54 4.23-13.539 6.769-19.462 9.307-21.155 2.538-9.308 1.692-14.385.846-16.924v-14.385l-.846-13.539-2.538-11.847-3.385-8.462-6.768-8.462 1.692-15.231 5.076-21.155 5.923-16.924 5.076-9.308h2.539l8.461 10.154 11.845 16.078 6.768 11 6.769 11.847v4.231l-13.537 13.539-6.769 5.924-2.538 4.23v6.77l4.23 12.693 7.615 16.924 5.077 12.693 4.23 15.231v4.231l-4.23 2.539-5.077 5.923-.846 2.538v9.309l4.23 5.923 5.923 2.538H291.9l6.769-3.384 3.384-4.231 3.384-7.616.846-6.77-2.538-5.077-4.23-3.384-3.385-1.693-5.922-.846-5.923-20.309-13.537-30.462-2.538-7.616.846-4.231 5.922-5.923 6.769-5.924 7.615-8.462 3.384-4.231-.846-5.923-5.923-11.001-7.614-12.692-8.461-11.847-10.999-14.385-5.923-6.77 3.384-5.923 5.923-7.616 7.615-8.462 2.538-1.692 10.999 10.154 5.923 6.77 10.153 12.692 15.229 22.848 5.923 11-1.692 4.231-3.385 6.77v11.846l4.231 8.462 3.384 1.693h9.307l5.923-3.385 5.922-5.924 5.077-10.154v-6.769l-3.385-5.077-5.922-3.385-11.845-1.693-9.307-16.077-8.461-12.693-7.615-10.154-7.615-9.309-9.307-10.154-5.922-5.923-1.692-.846 1.692-3.385 12.691-12.693 6.769-5.077 8.461 5.923 8.46 3.385 6.769.846 4.231-6.769 6.768-11.001 9.307-11 10.153-8.462 3.385-2.539Z"/><path fill="#034080" d="M618.483 297.013h22.844l22.845 3.384 13.537 4.231 12.691 5.078 12.691 6.769 8.461 6.77 5.923 5.077 8.461 11 5.076 11.001 3.385 13.539v22.001l-3.385 18.616-5.922 19.462-6.769 15.232-6.769 12.693-7.614 10.154-7.615 8.462-11.845 8.462-7.615 4.231-11.845 4.231-16.922 3.385h-32.997l-15.23-2.539-12.691-3.385-12.691-5.077-10.153-5.923-8.461-6.77-8.461-8.462-9.307-15.231-5.077-11.001-5.076-16.077-2.538-12.693-1.693-15.232S521 383.324 513.568 381c-7.431-2.324-11.068-3-21.068-2.5-10 .5-17.005 4.824-17.005 4.824l-8.461 6.77-2.539 4.231-2.538 18.616-5.076 17.77-6.769 15.231-8.461 12.693-8.461 9.308-10.999 8.462-13.537 6.77-15.23 5.077-18.614 3.385h-32.997l-15.229-2.539-12.692-4.231-12.691-6.769-8.461-6.77-8.461-8.462-7.614-11-10.153-19.463-5.923-16.077-4.23-16.078-2.539-17.77v-13.539l2.539-13.539 4.23-11.001 5.923-9.308 9.307-10.154 11.845-8.462 12.691-6.769 16.076-5.924 20.306-4.231 19.46-1.692 21.998.846 15.229 2.539 12.692 3.384 10.153 3.385 14.383 7.616 8.461 6.769 8.461 8.462 7.615 11.847 5.076 12.693 1.692 6.769 4.231-1.692S480.5 355 492 354c11.5-1 19.068.607 21.568 1.4 2.5.792 11 3.385 11 3.385h2.538l4.23-12.693 5.923-11.001 5.922-7.615 8.461-8.462 11.845-7.616 10.153-5.077 16.076-5.077 18.614-3.385 10.153-.846Z"/><path fill="#29ABE2" d="M775.013 751.418h16.922l18.614 2.539 7.615 1.692 7.615 3.385 3.384 3.384 3.384 8.462 2.538 16.078.847 16.078v24.539l-1.693 27.078-3.384 21.155-4.23 16.078-6.769 13.539-8.461 8.462-6.769 3.384-3.384.847h-19.46l-20.306-5.077-21.998-8.462-21.152-10.155-13.538-7.615-16.075-11.001-10.999-8.462-10.999-9.308-6.769-5.923-6.769-9.308-2.538-5.078-2.538-10.154-6.769-3.385-3.384-4.231-.846-7.615 4.23-12.693 5.076-8.462 5.923-4.231 2.538-.846h8.461l7.615-6.77 20.306-6.769 23.69-8.462 22.845-6.77 20.306-4.231 16.921-1.692Z"/><path fill="#0F8CD4" d="m246.212 533.101 5.076 1.692 19.46 11 21.999 10.155 23.69 9.308 16.076 5.077 17.767 3.385 32.998 3.385 6.768.846 43.997 1.692h17.768l11.845.846 27.921.846 10.999.847 42.304.846-.846 5.923-1.692 5.924-11.845 8.461-11 4.231-9.307 1.693h-26.228l-13.538-1.693h-4.23l-6.769 5.924-7.614 11.846-4.231 8.462-1.692 1.693-6.769-.846-5.922-2.539-.846-.846v-11.001l3.384-11 4.23-8.462h-8.46l-7.615 6.769-6.769 11.847-5.076 7.616h-5.923l-7.615-3.385-1.692-1.692v-6.77l3.384-11 5.923-11.001-20.306-4.231-14.383-1.692h-14.384l-9.307 7.616-6.769 5.923-8.46 11-7.615 13.539-1.692 1.693-6.769-.846-10.153-4.231-6.769-5.077-6.768 5.077-13.538 13.539-.846 1.692 3.385 1.693 11.845 11.846 7.614 9.308 8.461 11.001 8.461 12.693 7.615 12.693 2.538 5.077 11.845 1.692 5.923 3.385 3.384 4.231.846 1.692v6.77l-5.076 10.154-7.615 7.616-5.076 2.538h-9.307l-5.077-3.384-3.384-7.616v-11.847l4.23-8.462.846-2.538-8.461-15.232-10.999-16.077-9.307-11.847-7.614-8.462-5.923-6.77-5.923-4.231-6.768 6.77-8.461 11-2.538 5.078 7.614 8.462 11.846 16.077 10.153 15.232 8.461 15.231 1.692 3.385-.846 5.923-2.539.846-1.692 3.385-5.922 6.77-5.923 5.923-6.769 5.923-.846 4.231 5.077 13.539 10.999 24.54 5.076 16.924v3.385h5.923l6.769 4.23 3.384 4.231.846 5.924-3.384 9.308-3.385 5.077-5.922 4.231-2.538.846h-10.153l-6.769-3.385-4.231-5.923v-9.308l3.385-5.923 5.076-5.078h2.539l-4.231-16.923-5.076-13.539-6.769-14.386-5.077-13.539-.846-3.384v-6.77l5.077-6.77 12.691-11.846 5.077-5.077-.846-5.924-9.307-16.077-8.461-11.847-10.999-14.385-4.231-5.077-2.538 2.538-5.923 13.539-4.23 12.693-4.231 18.616-1.692 14.386-3.384-1.693-5.923-5.923-4.23-8.462-.846-3.385v-14.385l3.384-10.154 10.153-18.617 5.077-10.154 2.538-9.308.846-5.923v-8.462l-1.692-7.616-5.077-7.616-6.768-5.077-12.692-4.231-10.999-4.231-5.076-4.231-3.385-6.769v-6.77l2.539-6.769 6.768-9.308 7.615-8.462 9.307-5.924 10.999-3.384 5.077-.847h16.075l8.461.847h20.306l2.539-1.693-14.384-7.616-10.153-6.769-7.615-5.923-3.384-2.539v-1.692Z"/><path fill="#29ABE2" d="M137.066 647.337h6.768l4.231 3.385 8.461 14.385 2.538 6.769v8.462l-2.538 5.078-.846.846v16.924l-7.615 33.001-7.615 27.924-9.307 24.54-9.307 20.308-5.076 6.77-5.923 5.923-9.307 4.231-10.153.846-17.768-2.538-20.306-5.923-16.075-7.616-11-7.616L11 787.805l-5.922-9.308-4.23-9.309L0 760.727V748.88l4.23-13.539 5.077-10.154 7.615-10.155 13.537-13.539 9.307-7.616 13.537-11 13.538-10.154 10.999-8.462 15.23-9.308 11.845-5.078 7.614-1.692h12.692l7.614 1.692 4.231-2.538Z"/><path fill="#FFFBE8" d="M616.794 319.015H637.1l13.537 1.692 17.768 5.077 13.537 6.77 9.307 6.769 7.615 7.616 5.077 8.462 3.384 8.462 1.692 8.462v14.385l-2.538 14.385-5.923 17.77-6.768 13.539-5.923 8.462-7.615 8.462-10.153 7.616-13.537 5.923-10.999 2.539-7.615.846H621.87l-16.921-2.539-12.692-4.231-10.999-5.923-9.307-7.616-8.461-10.154-6.768-12.693-4.231-12.693-2.538-13.539v-22.001l3.384-13.539 3.385-8.462 5.922-8.462 5.923-6.769 10.999-7.616 11.845-5.923 13.538-3.385 11.845-1.692ZM353.659 319.86h15.229l16.922 2.539 12.691 3.385 14.384 7.615 8.46 6.77 5.923 6.769 6.769 11.847 3.384 11.001 1.692 14.385-.846 16.078-4.23 17.77-5.923 13.539-7.615 11-9.307 9.308-10.999 6.77-10.153 4.231-14.383 3.384-5.923.847h-21.998l-13.537-2.539-10.999-4.231-10.153-5.923-10.153-9.308-6.769-9.308-8.461-16.078-5.077-15.232-2.538-11-.846-9.308v-7.616l2.538-13.539 3.385-7.616 5.076-7.615 6.769-7.616 12.691-8.462 13.538-5.923 16.075-4.231 14.384-1.693Z"/><path fill="#0F8CD4" d="M569.416 720.108h16.922l16.921 2.539h17.768l7.615-2.539-.846 4.231-5.923 6.77-5.922 3.385h-16.076l-15.23-2.539-10.999.846-5.076 3.385-5.077 6.77-5.076 13.539-8.461 32.155-7.615 16.078-7.615 8.461-7.614 5.078-4.231 1.692-10.153.846-4.23-.846-1.692 4.231-7.615 12.693-11.845 16.077-9.307 11.001-5.923 6.769-18.614 20.309-13.537 13.539-6.769 5.923-12.691 11.001-14.384 11-15.229 10.155-15.23 8.462-21.998 9.308-22.844 7.615-17.768 4.231-28.767 3.385h-10.153l-17.768-1.692-11.845-4.231-10.999-7.616-5.922-6.769-6.769-11.847-4.231-11.847-1.692-11.846v-17.77l2.539-13.54 2.538-7.615h.846l.846 17.77 2.538 10.154 5.923 11.847 7.615 7.615 9.306 5.924 9.307 4.231 16.076 4.231 16.076 1.692h12.691l5.076-.846 4.231-11.847 5.076-24.539h32.152l10.153-1.693 10.153-4.231 7.614-5.077 6.769-5.923 3.384 1.692 1.693 6.77v16.924l-1.693 7.615 17.768-8.462 14.384-8.461 16.075-11.001 13.538-11 10.999-10.155 7.615-8.462 10.153-15.231 7.614-12.693 9.307-17.77 12.692-30.463 5.076-14.385.846-1.693 2.538.847 3.385 7.615.846 4.231v6.77l10.153-4.231 5.922-6.77 5.077-15.231 5.076-22.001 3.385-8.462 5.076-7.616 5.923-5.077 5.922-2.538 4.231-.847ZM691.252 16.924h1.693l5.076 8.462 4.231 10.154.846 3.385V53.31l-3.385 12.693-5.922 11-7.615 8.462-8.461 5.924-13.537 5.077-5.923 1.692-11.845 16.924-10.153 17.77-8.461 19.462-9.307 25.386-7.615 26.232-4.23 21.155-.846 11 7.615 1.693 16.075 6.769 13.538 6.77 9.307 6.769 8.46 8.462 6.769 11.847 3.384 11 1.693 13.54-8.461-1.693-22.845-3.385h-22.844l-16.075 1.693-15.23 3.385-10.153 3.384-3.384-.846 18.614-5.923 14.383-2.539 8.461-.846h19.46l-8.461-16.078-6.769-8.462-6.768-6.769-9.307-5.923-11.846-4.231-27.92-6.77-10.999-2.538-.847-2.539 5.923-2.539 24.537-3.384h2.538l.846-13.539 2.538-11.847 10.999-31.309 15.23-41.464 8.461-25.385 3.384-13.54V89.697l-5.077-11 .847-1.693 10.153 1.693 11.845 1.692 11.845-.846 9.307-3.385 10.999-8.462 7.615-9.308 5.922-11.846 2.539-11.847V24.54l-.847-7.616ZM676.868 777.649l2.538.847-7.615 6.769-5.076 8.462-4.231 11.001-1.692 6.769.846 8.462 5.923 11.847 5.922 7.615 3.385 4.231 6.768 5.924 8.461 5.923 14.384 8.462 15.229 6.769 15.23 5.078 12.691 2.538 6.769.846h11.845l1.692-14.385 4.23-17.77 7.615-22.847 7.615-17.77 6.769-12.693 6.768-9.308 5.077-4.231-.846 5.923-8.461 23.694-4.231 17.77-1.692 13.539v13.539l2.538 16.077 5.077 12.693 5.923 8.462 3.384 1.693h6.769l6.768-5.078 4.231-7.615 1.692-1.693-.846 7.616-4.231 11.001-5.076 8.462-7.615 7.615-6.769 3.385-3.384.846h-19.46l-20.306-5.077-21.998-8.462-21.152-10.154-13.538-7.616-16.075-11-10.999-8.462-10.999-9.308-6.769-5.924-6.769-9.308-2.538-5.077-2.538-10.154-6.769-3.385-3.384-4.231-.846-7.616 4.23-12.693 5.076-8.462 5.923-4.23 2.538-.847h8.461l7.615-6.769 5.923-1.693ZM137.063 647.337h6.769l4.231 3.385 8.46 14.385 2.539 6.769v8.462l-2.539 5.078-.846.846v16.924l-7.614 33.001-7.615 27.924-9.307 24.54-9.307 20.308-5.077 6.77-5.922 5.923-9.307 4.231-10.153.846-17.768-2.538-20.306-5.923-16.076-7.616-10.999-7.616-15.23-15.231-5.922-9.308-4.23-9.309v-12.692l1.692 1.692 4.23 10.154 7.615 11.847 6.769 7.616 11.845 9.308 11 6.769 12.69 5.077 8.461 1.693h8.461l5.077-2.539 1.692-3.384-.846-7.616-5.077-10.155-7.615-8.461-8.46-8.462-11.846-7.616-13.537-6.77-2.538-2.538h7.614l16.922 5.923 17.768 7.616 14.383 7.616 11.846 8.462 3.384-1.693 8.461-11.847 6.768-11 6.769-13.539 5.923-15.232 8.461-27.924 4.23-19.462.846-10.155-8.461-12.692-3.384-4.231.846-5.078 4.23-2.538ZM314.743 61.773l.846 1.692-6.769 20.308-.846 4.231v13.539l6.769 27.079 11.845 40.617 4.231 22.847 5.076 23.693 4.231 13.539 5.076 10.155 2.538 1.692 10.153-.846-1.692 3.385-4.23 5.077-6.769 3.385h-10.999l-11.845-3.385-14.384-5.924-9.307-1.692.846-2.539 11-3.384h2.538l-1.692-20.309-4.231-28.77-5.076-23.694-7.615-28.77-10.153-30.463-2.538-8.462h-9.307l-8.461-2.539-9.307-5.923-5.923-6.77-4.23-8.461-.846-7.616 2.538 3.385 3.384 5.077 8.461 5.077 5.077 1.692h15.229l12.692-3.385 13.537-6.769 10.153-6.77Z"/><path fill="#0F8CD4" d="M397.655 711.647h5.077l5.076 3.385 5.077 6.77 10.153 22.001 10.999 19.462 10.999 18.616 4.23 9.308.846 5.078-3.384 5.923-5.077 3.385-12.691 4.231-32.151 7.615-24.537 6.77-4.23.846h-10.153l-3.384-3.385-.846-2.538-.847-9.308v-8.462l2.539-4.231 3.384-2.539 10.153-2.538 28.767-2.539 13.537-.846 5.077-1.693-.846-4.23-5.077-9.309-11.845-15.231-10.153-16.078-3.384-6.769-.846-8.462 2.538-5.923 4.23-5.078 6.769-4.231ZM539.797 446.789l3.384 3.385 5.923 9.308 9.307 9.308 12.691 8.462 13.537 5.923 10.999 3.385 13.538 2.539 5.922.846h32.998l16.921-3.385 11.846-4.231h1.692l-.846 11.847-3.385 18.616-5.076 12.693-5.077 9.308-7.614 8.462-9.307 8.462-15.23 9.308-14.383 6.769h-2.539l1.693-4.231 5.922-8.461 9.307-17.77 7.615-22.848 2.538-8.462-5.076.847h-12.692l-15.229-2.539-13.538-4.231-14.383-6.769-13.537-9.309-8.461-7.615-6.769-6.77-5.922-9.308-6.769-11.847v-1.692Z"/><path fill="#000" d="m665.868 378.247 7.615.846 6.768 3.385 4.231 5.077 3.384 8.462v12.693l-3.384 8.462-3.385 5.077-6.768 5.923-5.923 2.539h-8.461l-7.615-3.385-5.922-6.769-2.538-6.77-.847-7.616 1.693-9.308 1.692-.846 7.615-.846 6.768-4.231 2.538-3.385 2.539-9.308ZM398.501 375.709l6.768.846 6.769 3.385 5.076 5.923 2.539 6.77v14.385l-4.231 10.154-4.23 5.078-5.923 4.23-5.076 1.693h-8.461l-7.615-3.385-5.076-5.923-3.385-8.462V397.71l1.692-4.231h5.923l7.615-3.385 4.23-5.077 2.538-8.462.847-.846Z"/><path fill="#0F8CD4" d="m474 384.5-1.888 28.441-5.077 22.001-5.922 16.078-6.769 11.847-6.769 8.462-6.768 7.615-11 6.77-8.46 3.385-15.23 3.384-16.076.847h-40.612l-16.075-1.693-16.076-4.231-1.692-1.692 8.461 1.692 10.999 2.539 6.769.846h32.997l18.614-3.385 17.768-5.923 13.537-7.616 11.845-10.154 6.769-8.462 6.768-11.001 6.769-16.077 4.231-15.232 2.538-18.616L467 390l7-5.5ZM590.561 735.341l11 .846 10.153 5.077 3.384 4.231 2.538 5.077-.846 5.924-2.538 2.538-13.538 4.231-9.306 6.77-9.307 8.462-5.077 2.538-5.923-.846-4.23-4.231-2.538-3.385-1.692-5.077v-5.923l3.384-9.308 3.384-5.077 6.769-6.77 9.307-4.231 5.076-.846ZM626.097 763.265h8.46l5.923 6.769v9.308l-5.077 7.616-10.153 11.847-5.922 9.308-4.231 2.538h-6.768l-7.615-3.384-4.23-3.385-2.539-6.77.846-7.615 4.231-6.77 7.615-7.616 10.999-7.615 8.461-4.231ZM195.447 621.95H205.6l5.076 3.385 3.385 4.231 3.384 8.462v15.231l-4.23 11.001-5.077 6.769-4.23 2.539-5.923-.846-2.538-4.231-1.692-13.539-3.385-9.308-5.922-8.462-.846-6.77 5.922-5.923 5.923-2.539ZM168.372 635.489h5.922l4.231 2.539 5.076 6.769 4.231 12.693.846 5.077v7.616l-2.538 5.077-1.693.846h-5.922l-4.231-3.384-9.307-14.386-6.768-8.461v-6.77l4.23-5.077 5.923-2.539ZM304.589 24.54h1.693l.846 5.923-3.385 8.462-6.768 5.924-7.615 3.384h-10.999l-6.769-3.384-3.384-4.231-1.692-4.231 1.692-7.616 3.384-1.692 3.384 4.23 7.615 2.54h5.923l7.615-2.54 7.614-5.923.846-.846ZM658.253 27.925l4.23 1.692 3.385 4.231.846 1.693v8.461l-3.385 5.924-4.23 3.384-3.384 1.693h-10.153l-6.769-3.385-3.384-4.23-.847-5.078 5.077.846 4.23 1.693h9.307l4.231-2.539 1.692-3.385v-5.923l-.846-5.077Z"/><path fill="#FFFBE8" d="m572.798 334.245 1.692.846-11.846 11.847-3.384 5.077-.846-1.692 6.769-9.308 7.615-6.77ZM300.358 337.63l1.693.846-12.692 12.693v-2.539l7.615-8.462 3.384-2.538Z"/><path fill="#000" fill-rule="evenodd" d="M526.748 519.05c-2.238 2.411-5.52 5.543-9.164 7.498-6.317 3.39-11.227 5.374-18.931 6.337-7.306.914-13.24 1.244-22.211-.645-4.476-.942-7.971-2.222-10.743-3.954-2.844-1.778-4.739-3.916-6.152-6.271l7.522-4.514c.781 1.301 1.737 2.38 3.28 3.345 1.615 1.009 4.042 1.996 7.9 2.809 7.699 1.621 12.585 1.366 19.316.524 6.334-.791 10.198-2.317 15.871-5.362 2.351-1.262 4.845-3.541 6.884-5.737a52.432 52.432 0 0 0 2.364-2.732c.281-.35.499-.63.642-.817l.157-.208a3.7 3.7 0 0 1 .034-.046l.004-.006c-.001.001-.001.001 3.541 2.59 3.541 2.588 3.541 2.589 3.54 2.589l-.001.002-.002.003-.006.008-.019.026-.061.082-.216.286a60.305 60.305 0 0 1-3.549 4.193Z" clip-rule="evenodd"/><path fill="#000" d="M467.695 519.758a4.387 4.387 0 1 1-8.775.001 4.387 4.387 0 0 1 8.775-.001ZM539.93 516.834a4.387 4.387 0 1 1-8.774 0 4.387 4.387 0 0 1 8.774 0ZM529.695 499.723a4.387 4.387 0 0 1-4.386 4.387c-2.423 0-4.387-2.256-4.387-4.679 0-2.423 1.964-4.095 4.387-4.095a4.387 4.387 0 0 1 4.386 4.387Z"/><path fill="#000" fill-rule="evenodd" d="M520.988 498.672c0-.001 0-.002 4.32.759s4.32.76 4.32.759l.001-.005.001-.004v-.002l-.004.026a16.912 16.912 0 0 0-.108.86 22.27 22.27 0 0 0-.111 2.481c.025 2.111.375 4.152 1.171 5.507.716 1.217 1.992 2.111 3.423 2.724.682.292 1.308.48 1.755.592.22.055.388.09.488.109l.094.017.004.001-.002-.001-.011-.001-.008-.002-.008-.001c-.001 0-.003 0-.623 4.343-.62 4.342-.622 4.342-.623 4.342h-.004l-.006-.001-.015-.003-.038-.005-.101-.016a17.48 17.48 0 0 1-1.284-.273 20.493 20.493 0 0 1-3.069-1.035c-2.328-.996-5.498-2.88-7.534-6.343-1.955-3.325-2.35-7.206-2.381-9.849-.017-1.389.067-2.6.155-3.469a25.1 25.1 0 0 1 .173-1.362l.016-.096.006-.032.002-.013.001-.007Z" clip-rule="evenodd"/></svg>