<?xml version="1.0" encoding="UTF-8"?>
<svg id="red_and_white_logo" xmlns="http://www.w3.org/2000/svg" viewBox="0 0 180 40.3">
  <defs>
    <style>
      .cls-1 {
        fill: #f05656;
      }

      .cls-2 {
        fill: #fff;
      }
    </style>
  </defs>
  <g>
    <path class="cls-1" d="M10.85,18.68c.3.4.3.8.2,1.2.5,0,1,.5,1,1,.5-.1,1,.2,1.2.6.4-.3,1-.2,1.3.2q.2.27,0,0h.1c.2-.3.6-.4.9-.2,0-.1.1-.2.2-.3.2-.2.6-.2.8,0,0-.2.2-.3.3-.3-.1-.2-.2-.4-.2-.6h0c-.2,0-.4,0-.5-.2q-.07-.13,0,0c-.2.1-.4.1-.6,0-.2-.1-.3-.3-.4-.5h-.5c-.4-.1-.6-.5-.5-.9-.3,0-.6-.2-.8-.4-.2-.3-.2-.6,0-.9-.4,0-.6-.4-.7-.8,0-.4,0-.8.3-1-.4-.4-.5-1-.1-1.5h0c0,.2-.2.4-.4.5s-.4.1-.6,0c0,.5-.4.8-.9.9.1.2.2.6,0,.8-.1.3-.3.5-.6.6.4.4.3,1.1,0,1.5.2,0,.4.1.6.4l-.1-.1Z"/>
    <path class="cls-1" d="M16.65,24.98c0-.5.3-1,.8-1h0c0-.5.1-.8.4-.9,0,0-.2-.2-.2-.3,0-.3,0-.6.4-.7,0,0,0-.1-.1-.2v-.2c-.2,0-.4,0-.6-.2,0,0,0,.2-.2.3,0,0-.2.1-.4,0,0,.2-.1.5-.3.6s-.5.1-.7,0c0,.3-.3.5-.5.6-.3,0-.6,0-.7-.2,0,0-.1.2-.2.2-.2.2-.5.3-.8.2-.3,0-.5-.2-.6-.5-.3.2-.7.3-1,.2-.3-.1-.6-.4-.6-.8-.5.2-1.1,0-1.3-.5h-.1c.1.1.2.3.2.4,0,.3,0,.5-.2.7.4.3.5.8.3,1.2.3,0,.5.2.7.4.2.2.2.5.2.8.6,0,1.1.3,1.2.8.6-.4,1.4-.4,1.8.2h0c.3-.4.9-.6,1.4-.4.2-.4.6-.8,1.1-.7h0Z"/>
    <path class="cls-1" d="M19.35,15.58c0,.2,0,.5-.2.7s-.4.3-.7.3h0c0,.5,0,.8-.4.9h0c.3.3.3.7,0,.9l-.2.1s.1.2,0,.3c.2,0,.5,0,.7.2,0-.2.3-.3.5-.2,0-.2.1-.5.3-.6s.5-.1.7,0c0-.2,0-.3.2-.4.3-.3.8-.2,1,0,.2-.4.8-.6,1.2-.4.2,0,.3.2.4.4.3-.2.7-.3,1-.2.3.1.6.4.6.8.5-.2,1.1,0,1.3.5h.1c-.3-.4-.3-.8,0-1.2h0c-.4-.3-.5-.8-.3-1.2-.3,0-.6-.1-.7-.4-.2-.2-.2-.5-.2-.8-.6,0-1.1-.3-1.2-.8-.6.4-1.4.4-1.8-.2-.3.4-.9.6-1.4.4,0,.5-.6.8-1,.8l.1.1Z"/>
    <path class="cls-1" d="M14.45,15.58c.4.4.4.9,0,1.3.2,0,.4.3.5.5v.7h.1c.3.1.6.4.5.8.2,0,.4,0,.6.1.2.1.3.4.2.6h.4c.1-.2.3-.4.4-.5v-.6c-.2-.1-.3-.3-.3-.6s.1-.4.3-.6c-.2-.2-.3-.5-.2-.7,0-.3.3-.5.6-.5-.2-.3-.2-.6,0-.9.2-.3.5-.4.8-.4,0-.4,0-.7.4-1,.3-.2.7-.3,1-.2,0-.4.5-.8.9-.8v-.2h-.5c-.3,0-.4-.3-.5-.6-.4.2-.9.1-1.2-.3-.2.2-.4.4-.7.4s-.6,0-.8-.2c-.2.5-.7.9-1.3.7.1.7-.4,1.4-1.1,1.5.2.5,0,1-.4,1.4l.3.1Z"/>
    <path class="cls-1" d="M24.95,24.38c.1-.3.3-.5.6-.6-.4-.4-.3-1.1,0-1.5-.2,0-.4-.2-.6-.4h0c-.3-.4-.3-.8-.2-1.2-.5,0-1-.5-1-1-.5.1-1-.2-1.1-.6-.2.2-.5.2-.7.2s-.5-.2-.6-.4h-.1c-.2.3-.6.4-.9.2,0,.1-.1.2-.2.3-.2.2-.6.2-.8,0,0,.1-.1.2-.2.3,0,.2.2.4.2.6h.2c.2,0,.2.2.3.3.2-.1.4-.1.7,0,.2.1.4.3.4.6h.5c.4.1.6.5.5.9.4,0,.7.1.9.4s.2.7,0,1c.3.1.6.4.6.8s0,.7-.3,1c.4.4.5,1,.1,1.5h.1c0-.2.2-.3.4-.4s.4-.1.6,0c0-.5.4-.9.9-.9-.2-.3-.2-.6,0-.9l-.3-.2Z"/>
    <path class="cls-1" d="M21.55,24.98c-.4-.4-.4-.9,0-1.3-.2,0-.4-.3-.5-.5s0-.5,0-.7h-.1c-.3-.1-.5-.4-.5-.8h0c-.2,0-.4,0-.6-.1s-.3-.3-.3-.6c-.1,0-.3,0-.4-.1-.1.2-.3.4-.5.5.2.2.2.4,0,.6q-.13.13,0,0c.3.2.4.6.2.9,0,0-.1.2-.2.2.2.2.3.5.2.7,0,.3-.3.5-.5.5v.3c0,.3,0,.6-.2.8-.2.2-.5.3-.7.3,0,.6-.3,1.1-.8,1.2h-.5c0,.4-.5.8-.9.8v.2h.6c.2.1.3.3.4.5.4-.2.9-.1,1.2.3.2-.2.4-.4.7-.4s.6,0,.8.2c.2-.6.8-.8,1.3-.7-.1-.7.4-1.4,1.1-1.5-.2-.5,0-1,.4-1.4l-.2.1Z"/>
    <path class="cls-1" d="M16.45,30.08c-.4,0-.6-.4-.7-.7-.3.1-.6,0-.8,0-.2-.2-.3-.4-.3-.7h-.3c-.3-.1-.5-.4-.4-.8-.2.2-.4.3-.7.3-.7,0-1.4-.4-1.4-1.1-.4.2-.8.2-1.2,0-.4-.3-.5-.7-.4-1.1-.5,0-1-.3-1.1-.9,0-.2,0-.5.2-.6-.5,0-.8-.5-.8-1,0-.2.2-.4.3-.6-.2-.2-.3-.4-.3-.7s.2-.5.5-.6c-.2-.2-.2-.6,0-.8h0c-.2,0-.3-.2-.4-.4-.4-.6-.3-1.4.2-1.8-.4-.2-.6-.6-.5-1.1,0-.4.4-.8.8-.9-.2-.3-.2-.7,0-1s.6-.5.9-.5c-.1-.3,0-.7.2-1,.2-.2.6-.3,1-.2,0-.3.2-.5.5-.6s.6,0,.8.1c.1-.3.4-.4.6-.4h0c0-.4.2-.8.6-1,.4-.2.8-.3,1.2-.1v-.4c.2-.4.5-.6.8-.7.4,0,.7,0,1,.3.1-.4.5-.6.9-.6s.7.2.9.5c.2-.3.6-.4.9-.3.4,0,.6.4.7.7.3-.1.6,0,.8.1.2.2.3.5.3.7.3,0,.7.2.7.5v.2c.2-.2.4-.3.7-.3.7,0,1.3.5,1.4,1.2.4-.2.9-.2,1.2,0,.4.3.5.7.4,1.2.5,0,1,.3,1.1.9,0,.2,0,.5-.2.6.4,0,.6.3.7.7,0,.4,0,.7-.3.9.2.1.3.3.3.5,0,.4-.2.7-.5.9.2.2.2.6,0,.8.4.2.6.6.6,1s-.2.8-.5,1.1c.1,0,.2.1.3.2.2.3.3.7.2,1-.1.4-.4.6-.7.7.3.4.2,1-.2,1.3-.2.2-.4.3-.7.2.1.3,0,.7-.2,1-.2.2-.6.3-1,.2,0,.3-.2.5-.4.6-.3.1-.6,0-.8-.1-.1.2-.4.4-.6.4,0,.2,0,.3-.1.4-.3.6-1,1-1.7.7,0,.6-.4,1.1-1.1,1.1-.3,0-.6,0-.8-.3-.2.4-.5.6-.8.6M29.85,10.38l-9.2-5.3c-1.6-1-3.7-1-5.3,0l-9.2,5.3c-1.6,1-2.7,2.7-2.7,4.6v10.6c0,1.9,1,3.7,2.7,4.6l9.2,5.3c1.6,1,3.7,1,5.3,0l9.2-5.3c1.6-1,2.7-2.7,2.7-4.6v-10.7c0-1.9-1-3.6-2.7-4.6v.1Z"/>
  </g>
  <path class="cls-2" d="M44.95,28.68c-5.3,0-7.2-3.2-7.2-9s1.9-9.2,7.2-9.2,2.7.2,3.4.4q.1,0,.1.2v2c-.1,0-.2.2-.4.1-.6-.2-1.8-.4-2.9-.4-3.3,0-4.1,1.8-4.1,6.9s1,6.5,4.1,6.5,2.1-.2,2.8-.3h.3l.2,1.9q0,.2-.1.3c-.9.2-2.2.4-3.5.4M56.05,25.38c.5.6,1.2.8,3,.8s2.5-.2,3-.8c.8-.9,1.3-3.3,1.3-6s-.4-4.9-1.3-5.7c-.5-.6-1.2-.8-3-.8s-2.5.2-3.1.8c-.8.9-1.2,3-1.2,5.7s.4,5.1,1.2,6M64.55,26.88c-1.2,1.2-2.9,1.8-5.5,1.8s-4.3-.5-5.4-1.8c-1.5-2.2-2.3-4.8-2.1-7.5,0-3.3.9-5.9,2.1-7.3,1.2-1.3,2.9-1.7,5.5-1.7s4.3.4,5.5,1.7c1.5,2.1,2.2,4.7,2.1,7.3,0,3.3-.9,6.1-2.1,7.5h-.1ZM81.95,13.48c0-.2,0-.3-.3-.4-.5-.2-1.6-.3-2.5-.3-3.7,0-4.9,1-4.9,6.5s.6,6.9,5.1,6.9,1.8,0,2.4-.2c.3-.1.3-.2.3-.4v-12.1h-.1ZM70.85,19.28c0-6.2,2.4-8.9,8.2-8.9s2.2.2,2.7.2.2-.1.2-.3v-5.8c0-.2.1-.3.4-.3h2.5c.2,0,.4.1.4.3v23c0,.2-.1.3-.4.4-1.8.5-3.7.7-5.6.7-6.7,0-8.4-2.6-8.4-9.3ZM93.55,18.28h7.5c.3,0,.4,0,.4-1.2,0-2.9-.9-4.3-3.8-4.3s-4.3,2.2-4.3,5.2,0,.2.2.2v.1ZM98.25,28.58c-6.7,0-8.3-4.1-8.3-9.1s1.9-9.1,7.6-9.1,6.8,3.3,6.8,7.6v.9c0,1.3-.3,1.6-.9,1.6h-10q-.2,0-.2.2c0,4.3,2.1,5.4,5.6,5.4s3.3-.4,4.4-.9h.2c.2,0,.3,0,.3.2v1.8h.1c0,.1,0,.3-.2.4-1.7.6-3.6,1-5.4.9M128.95,28.28h-4.4q-.2,0-.3-.2l-3.3-14.3c0-.2-.1-.2-.4-.2s-.4,0-.4.2c-.9,4.3-2.8,11.5-3.6,14.3,0,.2-.2.3-.4.3h-4.3c-.1,0-.2-.2-.3-.3-1.6-5.6-3.1-11.3-4.5-16.9,0-.2,0-.3.2-.3h3c.2,0,.2.1.2.3,1,4.8,2.1,9.6,3.3,14.4,0,.2.2.2.4.2s.4,0,.4-.2l3.3-14.4c0-.2.1-.3.3-.3h4.7c.2,0,.3.1.3.3.8,4.1,2.5,11.2,3.2,14.4,0,.2.2.2.4.2s.3,0,.4-.2c.9-3.2,2.7-10.2,3.5-14.4,0-.2.2-.3.3-.3h2.8c.1,0,.2.1.2.3-.4,2.1-3.6,13.5-4.8,17,0,.2-.2.3-.4.3M146.75,20.48q0-.2-.2-.2h-3.1c-2.8,0-3.6.6-3.6,3.2s.6,2.9,3.9,2.9c.9,0,1.7,0,2.6-.2.3,0,.3-.1.3-.2v-5.5h.1ZM138.85,13.18c-.2,0-.5,0-.5-.1l-.2-1.6c0-.2,0-.4.2-.4,1.7-.4,3.5-.6,5.2-.6,4.2,0,6.3,1.5,6.3,5.3v11.8c0,.2,0,.4-.4.5-1.7.4-3.5.6-5.3.6-5.8,0-7.5-1.2-7.5-4.7s.8-4.9,5.7-5.4l4.3-.5c.1,0,.2,0,.2-.2v-1.6c0-2.5-1.1-3.2-4-3.2s-2.9.2-3.9.3l-.1-.2ZM155.75,11.18c2.7-.7,5.6-.8,8.4-.6.2,0,.2.1.2.3l-.2,2.1c0,.1,0,.2-.2.2-.9-.2-1.8-.2-2.9-.2s-1.8,0-2.3.3c-.2,0-.2.2-.2.4v14.4c0,.2-.2.4-.4.3h-2.5c-.2,0-.3-.1-.3-.3V11.38c0-.2.1-.3.4-.3v.1ZM165.95,28.28c-.1,0-.2,0-.2-.2l.2-2.1s.1-.2.3-.1c1.2.2,2.4.4,3.7.4,2.9,0,3.4-.3,3.4-2.4s-.7-1.9-3.5-3.8c-2.8-2-3.8-2.8-3.8-4.9,0-3.4,1.5-4.7,6-4.7s2.9,0,3.9.3c0,0,.2,0,.2.2v2.1c-.1.1-.3.2-.4.2-.9-.2-2.1-.3-3.3-.3-2.5,0-3.3.2-3.3,2s.7,1.9,3.5,3.7c2.9,1.9,3.9,3.1,3.9,5.1,0,3.9-1.8,5-5.9,5-1.5,0-3,0-4.4-.3"/>
</svg>