<?xml version="1.0" encoding="utf-8"?>
<!-- Generator: Adobe Illustrator 24.0.2, SVG Export Plug-In . SVG Version: 6.00 Build 0)  -->
<svg version="1.1" id="图层_1" xmlns="http://www.w3.org/2000/svg" xmlns:xlink="http://www.w3.org/1999/xlink" x="0px" y="0px"
	 viewBox="0 0 159.4 32.7" style="enable-background:new 0 0 159.4 32.7;" xml:space="preserve">
<style type="text/css">
	.st0{fill-rule:evenodd;clip-rule:evenodd;fill:#FC4262;}
	.st1{fill-rule:evenodd;clip-rule:evenodd;fill:url(#Fill-3_2_);}
	.st2{fill-rule:evenodd;clip-rule:evenodd;fill:#0270FE;}
	.st3{filter:url(#Adobe_OpacityMaskFilter);}
	.st4{fill-rule:evenodd;clip-rule:evenodd;fill:#FFFFFF;}
	.st5{mask:url(#mask-3_1_);fill-rule:evenodd;clip-rule:evenodd;fill:#0270FE;}
</style>
<title>编组</title>
<desc>Created with Sketch.</desc>
<g id="页面-1">
	<g id="PDF首页" transform="translate(-21.000000, -22.000000)">
		<g id="编组-3" transform="translate(20.461988, 21.611597)">
			<g id="编组">
				<path id="Fill-1" class="st0" d="M37.4,3.3c0.8-0.3,0.4-0.1,1.1-0.5c0.2-0.1,0.7-0.4,1.3-0.6c1-0.4,1.4-0.1,0.9,0.8
					c-0.2,0.4-0.4,0.7-0.6,0.9c-0.3,0.5-0.6,0.9-0.8,1.4c-0.2,0.4,0,0.9,0.4,1c0.5,0.2,1,0.6,1.3,0.2c0,0,0.3-0.5,0.4-0.9
					c0.5-1.5,0.8-1.9,1.3-4.5c0.1-0.4-0.3-0.8-0.9-0.7c-2.4,0.3-3.9,0.8-6,1.5c-0.1,0,0.1,0.5,0.1,0.5c-0.4,0.1-0.5-0.1-0.6,0.2
					c-0.1,0.7,1.4,0.7,2,0.6C37.3,3.3,37.3,3.3,37.4,3.3"/>
				
					<linearGradient id="Fill-3_2_" gradientUnits="userSpaceOnUse" x1="-210.1972" y1="424.873" x2="-211.159" y2="424.3941" gradientTransform="matrix(41.1696 0 0 -30.8772 8695.1885 13130.9932)">
					<stop  offset="0" style="stop-color:#035EFE"/>
					<stop  offset="1" style="stop-color:#028DFD"/>
				</linearGradient>
				<path id="Fill-3" class="st1" d="M33.1,2.6c-2,0.7-3.8,3-3.9,5.5l0,0c-5.4-1.4-14.2,1.7-15.7,7l0,0c-0.4,1.6,0.9,2.9,2.6,3l0,0
					c1.5,0.1,3.5-0.2,4.1,0.7l0,0c0.4,0.5,0.3,1.2,0,1.8l0,0c-1.6,3.5-5.8,5.5-7.8,6.5l0,0c-0.1,0.1,0,0.3,0.1,0.2l0,0
					c3.8-1.2,7.5-3.4,9.3-6.8l0,0c0.4-0.7,0.8-1.6,0.8-2.3l0,0c0-0.9-0.5-1.4-1.3-1.5l0,0c-0.3-0.1-0.7-0.1-1.1-0.1l0,0
					c-0.6,0-1.2,0-1.8-0.1l0,0c-0.7-0.2-1.6-0.6-1.7-1.2l0,0c-0.2-1.1,0.6-1.9,1.1-2.4l0,0c2.7-2.6,8.3-4.1,10.9-2.9l0,0
					c0.7,0.4,1.4,0.7,2.2-0.1l0,0c0.8-0.9,0.1-1.3,0.2-2.6l0,0c0.2-1.8,3.5-4.6,6.8-2.9l0,0c1.4,0.7,1.9,2.6,1.6,4.5l0,0
					c-0.9,5.1-2.7,8.9-6.1,12.9l0,0c-3.9,4.5-8.9,6.9-14.7,8.5l0,0c-5.8,1.5-12.3,1.3-18.2,0.3l0,0C4,32.5,8,33.1,12,33.1l0,0h0.1
					c1.5,0,3-0.1,4.6-0.2l0,0c5-0.4,10-2.3,14.2-5.1l0,0c5.6-3.9,11.1-12,10.9-19.2l0,0c-0.1-3.9-2.6-6.3-6.1-6.3l0,0
					C34.8,2.2,34,2.3,33.1,2.6"/>
				<polygon id="Fill-1_1_" class="st2" points="52,6 52,22.9 64.7,22.9 64.7,21 53.9,21 53.9,6 				"/>
				<polygon id="Fill-2" class="st2" points="66.8,22.9 69,22.9 69,10.1 66.8,10.1 				"/>
				<polygon id="Fill-3_1_" class="st2" points="66.8,8.3 69,8.3 69,6 66.8,6 				"/>
				<g transform="translate(70.713450, 5.514246)">
					<g transform="translate(0.000000, 3.742690)">
						<g id="Clip-5">
						</g>
						<defs>
							<filter id="Adobe_OpacityMaskFilter" filterUnits="userSpaceOnUse" x="0.8" y="0.8" width="12.6" height="17.9">
								<feColorMatrix  type="matrix" values="1 0 0 0 0  0 1 0 0 0  0 0 1 0 0  0 0 0 1 0"/>
							</filter>
						</defs>
						<mask maskUnits="userSpaceOnUse" x="0.8" y="0.8" width="12.6" height="17.9" id="mask-3_1_">
							<g class="st3">
								<polygon id="path-2_1_" class="st4" points="0.8,0.8 13.4,0.8 13.4,18.7 0.8,18.7 								"/>
							</g>
						</mask>
						<path id="Fill-4" class="st5" d="M7.3,11.9C4.7,12,2.8,10.1,2.7,7.3c0-3.1,2.3-4.6,4.6-4.6c2.3,0,4.2,2,4.2,4.6v2.8
							C10.4,11.2,8.8,11.9,7.3,11.9 M7.3,0.8c-3.6,0-6.5,2.9-6.5,6.5s2.9,6.3,6.5,6.5c1.4,0.1,3.3-0.6,4.2-1.3v0.1
							c0,2.3-1.9,4.2-4.2,4.2c-2,0-3.1-1.3-3.8-2.7H1.5c0.8,2.8,2.6,4.6,5.9,4.6c3.4,0,5.8-2.2,6.1-5.5l0-5.9
							C13.4,3.6,10.9,0.8,7.3,0.8"/>
					</g>
					<path id="Fill-6" class="st2" d="M25.8,5.7c-2.5-1.7-6-1.5-8.2,0.3V0.5h-1.9v17h1.9c0,0,0-4.8,0-6.9c0-1.1,0.5-2.1,1-2.6
						c1.4-1.7,4.1-2,5.9-0.7c1.1,0.7,1.6,1.8,1.6,3.1l0,7.1h1.9l0-6.3C28,8.9,27.6,7,25.8,5.7"/>
					<path id="Fill-8" class="st2" d="M41.7,6.5V4.5h-7.1V0.5h-1.9c0,0,0,1.8-0.1,4.1h-3.4v1.9h3.3c0,2.7,0,5.6,0.2,7.1
						c0.2,2.5,1.7,3.9,4.3,3.9c2.4,0,3.4-1.1,4.2-3.4c0-0.1,0.2-0.6,0.2-0.6h-2.1c-0.3,1.1-0.9,2.1-2.3,2.1c-1.6,0-2.5-1.3-2.5-2.9
						V6.5H41.7z"/>
					<path id="Fill-10" class="st0" d="M89.2,11.9l0-2.1H78l0-5.5c0-1,0.8-1.8,1.8-1.8h9.4l0-2.1h-9.7c-2,0-3.6,1.6-3.6,3.6L76,17.5
						h2L78,11.9H89.2z"/>
					<path id="Fill-12" class="st0" d="M62.4,13.9c0,0.9,0.7,1.6,1.6,1.6c0.5,0,1,0,1.5,0c2.7-0.1,6.2-1.4,6.1-6.8
						c0-3.9-2-6.2-5.9-6.2c-0.5,0-0.9,0-1.3,0c-1.1,0-2,0.9-2,2.1C62.4,7.2,62.4,10.8,62.4,13.9 M65.5,17.5h-1.9
						c-1.9,0-3.5-1.5-3.5-3.4c0-3.3-0.1-7-0.1-9.1c0-0.2,0-0.6,0-1.1c0-1.9,1.6-3.5,3.5-3.5c0.9,0,1.7,0,2.1,0
						c4.8,0,8.2,2.6,8.2,8.3C73.9,14.5,70.8,17.5,65.5,17.5"/>
					<path id="Fill-14" class="st0" d="M49.9,11.7c-0.9,0-2,0-3-0.1c0-2.5-0.1-6.1-0.1-8.2c0-0.6,0.4-1,1-1c0.9,0,1.5,0,2.4,0
						c4,0,5.7,1.3,5.7,4.5C55.9,11.1,52.7,11.7,49.9,11.7 M50.2,0.4c-0.6,0-1.9,0-3,0c-1.5,0-2.6,1.2-2.6,2.6l0.1,14.5h2l0-3.8
						c1,0,2.1,0.1,3.3,0.1c5.2,0,8.4-2,8.4-6.8C58.3,2.3,55.3,0.4,50.2,0.4"/>
				</g>
			</g>
		</g>
	</g>
</g>
</svg>
